# xmcd CD database file
#
# Track frame offsets:
#	150
#	19895
#	38310
#	50525
#	73602
#	89032
#	98500
#	116245
#	136167
#	151705
#	171412
#	182655
#	194367
#	208407
#	229120
#	245057
#	255905
#	274232
#
# Disc length: 3934 seconds
#
# Revision: 0
# Processed by: cddbd v1.5PL3 Copyright (c) Steve Scherf et al.
# Submitted via: CDex 1.51
#
DISCID=fc0f5c12
DTITLE=Jean Sangally - Brassens était-il noir ?
DYEAR=1900
DGENRE=Jazz
TTITLE0=Auprès de mon arbre
TTITLE1=La prière
TTITLE2=Le fossoyeur
TTITLE3=Au bois de mon coeur
TTITLE4=Jeanne
TTITLE5=Pauvre Martin
TTITLE6=Les passantes
TTITLE7=Cupidon s'en fout
TTITLE8=Saturne
TTITLE9=La non demande en mariage
TTITLE10=Marquise
TTITLE11=Heureux qui comme Ulysse
TTITLE12=Celui qui a mal tourné
TTITLE13=Mourir pour des idées
TTITLE14=L'orage
TTITLE15=Hécatombe
TTITLE16=La princesse et le croque note
TTITLE17=Mounoung (bonhomme)
EXTD=
EXTT0=
EXTT1=
EXTT2=
EXTT3=
EXTT4=
EXTT5=
EXTT6=
EXTT7=
EXTT8=
EXTT9=
EXTT10=
EXTT11=
EXTT12=
EXTT13=
EXTT14=
EXTT15=
EXTT16=
EXTT17=
PLAYORDER=
